<svg width="848" height="848" viewBox="0 0 848 848" fill="none" xmlns="http://www.w3.org/2000/svg">
<g opacity="0.05">
<path d="M702.195 299.43C707.167 281.981 708.245 263.653 705.352 245.741C702.459 227.83 695.666 210.773 685.453 195.777C675.239 180.78 661.856 168.212 646.249 158.959C630.642 149.706 613.192 143.996 595.135 142.232C587.889 121.442 574.36 103.419 556.42 90.6576C538.48 77.8958 517.016 71.0263 495 71C468.839 71.0886 443.647 80.9133 424.333 98.56C405.02 80.9133 379.828 71.0886 353.667 71C307.698 71 268.513 100.362 253.85 142.197C235.76 143.917 218.271 149.596 202.623 158.833C186.974 168.069 173.55 180.636 163.302 195.641C153.054 210.647 146.234 227.724 143.326 245.661C140.417 263.598 141.491 281.955 146.472 299.43C123.789 311.498 104.796 329.482 91.5087 351.472C78.221 373.463 71.1341 398.64 71 424.333C71 462.317 86.1227 498.039 112.411 524.397C108.388 537.785 106.341 551.688 106.333 565.667C106.333 634.814 156.224 692.513 223.145 704.668C232.97 726.381 248.834 744.809 268.845 757.753C288.855 770.696 312.168 777.609 336 777.667C370.591 777.667 401.861 763.286 424.333 740.249C435.803 752.08 449.532 761.489 464.705 767.916C479.879 774.344 496.188 777.659 512.667 777.667C536.456 777.623 559.731 770.737 579.716 757.832C599.701 744.926 615.552 726.545 625.38 704.88C645.094 701.404 663.847 693.787 680.401 682.53C696.954 671.273 710.932 656.632 721.41 639.576C731.889 622.519 738.63 603.433 741.189 583.579C743.748 563.725 742.067 543.554 736.256 524.397C749.393 511.256 759.812 495.655 766.917 478.486C774.023 461.316 777.675 442.915 777.667 424.333C777.533 398.64 770.446 373.463 757.158 351.472C743.87 329.482 724.877 311.498 702.195 299.43ZM336 707C310.878 707 289.007 689.192 284.06 664.671L276.569 636.333H247.667C208.694 636.333 177 604.639 177 565.667C177 553.229 180.003 541.569 185.939 531.005L202.051 502.173L174.35 484.153C164.343 477.701 156.11 468.848 150.401 458.399C144.693 447.951 141.69 436.24 141.667 424.333C141.667 389.813 167.213 359.885 201.097 354.656L260.917 345.469L223.499 297.911C216.835 289.32 212.971 278.89 212.428 268.032C211.885 257.173 214.691 246.41 220.465 237.198C226.239 227.986 234.703 220.77 244.712 216.525C254.721 212.28 265.792 211.212 276.428 213.464L318.333 219.647V177C318.333 167.629 322.056 158.642 328.682 152.016C335.309 145.389 344.296 141.667 353.667 141.667C363.038 141.667 372.025 145.389 378.651 152.016C385.277 158.642 389 167.629 389 177V654C389 683.221 365.221 707 336 707ZM674.317 484.117L646.615 502.137L662.727 530.969C668.663 541.569 671.667 553.229 671.667 565.667C671.667 604.639 639.973 636.333 599.233 636.333H570.331L564.607 664.671C562.136 676.623 555.622 687.358 546.161 695.069C536.701 702.779 524.871 706.993 512.667 707C483.446 707 459.667 683.221 459.667 654V177C459.667 157.496 475.496 141.667 495 141.667C514.504 141.667 530.333 157.496 530.333 178.767V221.414L572.239 213.464C582.875 211.212 593.946 212.28 603.955 216.525C613.964 220.77 622.428 227.986 628.202 237.198C633.976 246.41 636.781 257.173 636.239 268.032C635.696 278.89 631.832 289.32 625.168 297.911L587.75 345.505L647.569 354.691C664.123 357.372 679.185 365.845 690.071 378.601C700.956 391.357 706.956 407.564 707 424.333C707 448.466 694.775 470.797 674.317 484.117Z" fill="#4382F8"/>
</g>
</svg>
