<svg width="87" height="48" viewBox="0 0 87 48" fill="none" xmlns="http://www.w3.org/2000/svg">
<path d="M25.9011 17.6966C25.9011 21.2897 25.232 24.2937 23.8936 26.7085C22.5553 29.1088 20.6133 30.9199 18.0675 32.1418C15.5218 33.3492 12.4523 33.9529 8.85919 33.9529H0V2.05114H9.8193C13.1215 2.05114 15.9727 2.64757 18.373 3.84044C20.7733 5.01875 22.628 6.77168 23.9373 9.09922C25.2465 11.4122 25.9011 14.278 25.9011 17.6966ZM20.446 17.8493C20.446 15.2308 20.0314 13.0778 19.2022 11.3904C18.3875 9.70292 17.1801 8.45187 15.58 7.63723C13.9943 6.80805 12.0377 6.39345 9.71019 6.39345H5.23696V29.567H8.94647C12.8015 29.567 15.6818 28.5851 17.5875 26.6212C19.4931 24.6573 20.446 21.7334 20.446 17.8493Z" fill="#4382F8"/>
<path d="M37.6991 9.33924C40.754 9.33924 43.0597 10.0157 44.6163 11.3686C46.1874 12.7214 46.9729 14.8308 46.9729 17.6966V33.9529H43.3288L42.3469 30.5271H42.1724C41.4886 31.3999 40.7831 32.12 40.0557 32.6874C39.3284 33.2547 38.4847 33.6766 37.5246 33.9529C36.579 34.2439 35.4225 34.3894 34.0551 34.3894C32.6149 34.3894 31.3275 34.1275 30.1928 33.6038C29.0581 33.0656 28.1635 32.2509 27.5089 31.1599C26.8542 30.0689 26.5269 28.6869 26.5269 27.014C26.5269 24.5264 27.4507 22.6571 29.2982 21.4061C31.1602 20.155 33.9678 19.464 37.7209 19.3331L41.9105 19.1804V17.9148C41.9105 16.2418 41.5177 15.049 40.7322 14.3362C39.9612 13.6234 38.8702 13.267 37.4591 13.267C36.2517 13.267 35.0806 13.4415 33.946 13.7907C32.8113 14.1398 31.7057 14.5689 30.6292 15.0781L28.9709 11.4558C30.1492 10.8303 31.4875 10.3212 32.9859 9.9284C34.4988 9.53563 36.0698 9.33924 37.6991 9.33924ZM41.8887 22.4098L38.7683 22.5189C36.208 22.6062 34.4115 23.0426 33.3786 23.8282C32.3458 24.6137 31.8294 25.6902 31.8294 27.0576C31.8294 28.2505 32.1858 29.1233 32.8986 29.6761C33.6114 30.2143 34.5497 30.4835 35.7134 30.4835C37.4882 30.4835 38.9574 29.9816 40.1212 28.9778C41.2995 27.9595 41.8887 26.4685 41.8887 24.5046V22.4098Z" fill="#4382F8"/>
<path d="M55.2578 9.79748V33.9529H50.1299V9.79748H55.2578ZM52.7266 0.545516C53.5121 0.545516 54.1886 0.75645 54.7559 1.17832C55.3378 1.60018 55.6287 2.32754 55.6287 3.36038C55.6287 4.37868 55.3378 5.10603 54.7559 5.54245C54.1886 5.96431 53.5121 6.17525 52.7266 6.17525C51.9119 6.17525 51.2209 5.96431 50.6536 5.54245C50.1008 5.10603 49.8244 4.37868 49.8244 3.36038C49.8244 2.32754 50.1008 1.60018 50.6536 1.17832C51.2209 0.75645 51.9119 0.545516 52.7266 0.545516Z" fill="#4382F8"/>
<path d="M63.739 33.9529H58.5893V0H63.739V33.9529Z" fill="#4382F8"/>
<path d="M76.5189 9.33924C79.5738 9.33924 81.8796 10.0157 83.4361 11.3686C85.0072 12.7214 85.7927 14.8308 85.7927 17.6966V33.9529H82.1487L81.1667 30.5271H80.9922C80.3085 31.3999 79.6029 32.12 78.8756 32.6874C78.1482 33.2547 77.3045 33.6766 76.3444 33.9529C75.3988 34.2439 74.2423 34.3894 72.8749 34.3894C71.4347 34.3894 70.1473 34.1275 69.0126 33.6038C67.878 33.0656 66.9833 32.2509 66.3287 31.1599C65.6741 30.0689 65.3468 28.6869 65.3468 27.014C65.3468 24.5264 66.2705 22.6571 68.118 21.4061C69.98 20.155 72.7876 19.464 76.5408 19.3331L80.7303 19.1804V17.9148C80.7303 16.2418 80.3376 15.049 79.552 14.3362C78.781 13.6234 77.69 13.267 76.2789 13.267C75.0715 13.267 73.9005 13.4415 72.7658 13.7907C71.6311 14.1398 70.5255 14.5689 69.4491 15.0781L67.7907 11.4558C68.969 10.8303 70.3073 10.3212 71.8057 9.9284C73.3186 9.53563 74.8897 9.33924 76.5189 9.33924ZM80.7085 22.4098L77.5882 22.5189C75.0279 22.6062 73.2313 23.0426 72.1985 23.8282C71.1656 24.6137 70.6492 25.6902 70.6492 27.0576C70.6492 28.2505 71.0056 29.1233 71.7184 29.6761C72.4312 30.2143 73.3695 30.4835 74.5333 30.4835C76.308 30.4835 77.7773 29.9816 78.941 28.9778C80.1194 27.9595 80.7085 26.4685 80.7085 24.5046V22.4098Z" fill="#4382F8"/>
<path d="M4.19366 46.3266C4.19366 46.6812 4.10501 46.984 3.92772 47.2349C3.75315 47.4831 3.50767 47.6727 3.19127 47.8036C2.87487 47.9345 2.50256 48 2.07433 48C1.84794 48 1.63382 47.9891 1.43198 47.9673C1.23014 47.9454 1.04466 47.9141 0.875554 47.8732C0.706444 47.8323 0.557791 47.7818 0.429594 47.7218V47.0549C0.634163 47.1394 0.883737 47.2185 1.17832 47.2922C1.47289 47.3631 1.78111 47.3986 2.10297 47.3986C2.403 47.3986 2.65667 47.359 2.86396 47.2799C3.07126 47.1981 3.22809 47.0822 3.33447 46.9321C3.44357 46.7794 3.49812 46.5967 3.49812 46.3839C3.49812 46.1793 3.45312 46.0089 3.36311 45.8725C3.2731 45.7334 3.12308 45.6079 2.91306 45.4961C2.70576 45.3815 2.42209 45.2601 2.06205 45.1319C1.80839 45.0419 1.58473 44.9437 1.39107 44.8374C1.19741 44.7283 1.03512 44.6055 0.904194 44.4691C0.77327 44.3328 0.673713 44.1746 0.605523 43.9945C0.540061 43.8145 0.50733 43.6086 0.50733 43.3767C0.50733 43.0576 0.587794 42.7849 0.748721 42.5585C0.912376 42.3294 1.1374 42.1548 1.4238 42.0348C1.71292 41.912 2.04432 41.8507 2.418 41.8507C2.73713 41.8507 3.03171 41.8807 3.30174 41.9407C3.5745 42.0007 3.82407 42.0811 4.05046 42.1821L3.83362 42.7794C3.61814 42.6894 3.38902 42.6144 3.14627 42.5544C2.90624 42.4944 2.65803 42.4644 2.40164 42.4644C2.14524 42.4644 1.9284 42.5026 1.75111 42.5789C1.57654 42.6526 1.44289 42.7576 1.35015 42.894C1.25742 43.0303 1.21105 43.1926 1.21105 43.3808C1.21105 43.5909 1.25469 43.7654 1.34197 43.9045C1.43198 44.0436 1.57382 44.1677 1.76747 44.2768C1.96386 44.3832 2.22298 44.4951 2.54483 44.6123C2.89669 44.7405 3.19536 44.8769 3.44085 45.0215C3.68633 45.1633 3.87317 45.3379 4.00136 45.5452C4.12956 45.7497 4.19366 46.0102 4.19366 46.3266Z" fill="#5E5E5E"/>
<path d="M11.4311 47.9182L10.6947 46.0198H8.29714L7.56479 47.9182H6.86107L9.20134 41.912H9.82732L12.1512 47.9182H11.4311ZM10.486 45.402L9.7864 43.5159C9.77004 43.4668 9.74276 43.3863 9.70457 43.2745C9.66912 43.1626 9.63229 43.0467 9.59411 42.9267C9.55592 42.8067 9.52455 42.7099 9.50001 42.6362C9.47273 42.748 9.44273 42.8599 9.41 42.9717C9.37999 43.0808 9.34999 43.1831 9.31999 43.2786C9.28998 43.3713 9.26407 43.4504 9.24225 43.5159L8.53035 45.402H10.486Z" fill="#5E5E5E"/>
<path d="M15.2441 47.9182V41.9366H15.9397V47.2963H18.595V47.9182H15.2441Z" fill="#5E5E5E"/>
<path d="M26.4093 41.9366V45.807C26.4093 46.2298 26.3234 46.6062 26.1516 46.9362C25.9825 47.2663 25.7261 47.5268 25.3824 47.7177C25.0387 47.9059 24.6078 48 24.0895 48C23.3503 48 22.7871 47.7995 22.3998 47.3986C22.0152 46.9976 21.8229 46.4616 21.8229 45.7907V41.9366H22.5225V45.8111C22.5225 46.3184 22.6562 46.7099 22.9235 46.9853C23.1935 47.2608 23.5958 47.3986 24.1304 47.3986C24.4959 47.3986 24.7946 47.3331 25.0264 47.2022C25.261 47.0685 25.4342 46.8831 25.546 46.6458C25.6606 46.4057 25.7179 46.1289 25.7179 45.8152V41.9366H26.4093Z" fill="#5E5E5E"/>
<path d="M35.0092 44.8701C35.0092 45.5438 34.8865 46.1071 34.641 46.5598C34.3955 47.0099 34.0396 47.3495 33.5732 47.5786C33.1095 47.805 32.5462 47.9182 31.8834 47.9182H30.2591V41.9366H32.0634C32.6717 41.9366 33.1954 42.0484 33.6345 42.2721C34.0737 42.493 34.4119 42.8217 34.6492 43.2581C34.8892 43.6918 35.0092 44.2291 35.0092 44.8701ZM34.2769 44.8946C34.2769 44.3573 34.1869 43.9141 34.0068 43.5649C33.8296 43.2158 33.5677 42.9567 33.2213 42.7876C32.8776 42.6157 32.4562 42.5298 31.9571 42.5298H30.9547V47.3208H31.8016C32.6253 47.3208 33.2431 47.1176 33.655 46.7112C34.0696 46.3048 34.2769 45.6993 34.2769 44.8946Z" fill="#5E5E5E"/>
<path d="M45.671 47.9182L43.6622 42.6239H43.6294C43.6403 42.7358 43.6499 42.8721 43.6581 43.0331C43.6663 43.194 43.6731 43.3699 43.6785 43.5609C43.684 43.7491 43.6867 43.9414 43.6867 44.1377V47.9182H43.0403V41.9366H44.0713L45.9656 46.9117H45.9942L47.9172 41.9366H48.94V47.9182H48.2527V44.0886C48.2527 43.9114 48.2554 43.7341 48.2609 43.5568C48.2663 43.3767 48.2731 43.2076 48.2813 43.0494C48.2895 42.8885 48.2977 42.7494 48.3059 42.6321H48.2731L46.2397 47.9182H45.671Z" fill="#5E5E5E"/>
<path d="M56.1693 47.9182H52.8389V41.9366H56.1693V42.5503H53.5345V44.4855H56.0179V45.091H53.5345V47.3045H56.1693V47.9182Z" fill="#5E5E5E"/>
<path d="M64.4337 47.9182H63.6318L60.371 42.894H60.3383C60.3465 43.0276 60.356 43.1804 60.3669 43.3522C60.3778 43.5213 60.386 43.7027 60.3915 43.8964C60.3996 44.0873 60.4037 44.2823 60.4037 44.4814V47.9182H59.7573V41.9366H60.5551L63.8037 46.9444H63.8323C63.8269 46.849 63.82 46.7139 63.8118 46.5394C63.8037 46.3621 63.7955 46.1725 63.7873 45.9707C63.7818 45.7661 63.7791 45.5765 63.7791 45.402V41.9366H64.4337V47.9182Z" fill="#5E5E5E"/>
<path d="M70.1656 47.9182H69.466V42.5503H67.5839V41.9366H72.0394V42.5503H70.1656V47.9182Z" fill="#5E5E5E"/>
<path d="M78.9578 47.9182L78.2213 46.0198H75.8238L75.0914 47.9182H74.3877L76.728 41.912H77.354L79.6779 47.9182H78.9578ZM78.0127 45.402L77.3131 43.5159C77.2967 43.4668 77.2694 43.3863 77.2312 43.2745C77.1958 43.1626 77.159 43.0467 77.1208 42.9267C77.0826 42.8067 77.0512 42.7099 77.0267 42.6362C76.9994 42.748 76.9694 42.8599 76.9367 42.9717C76.9066 43.0808 76.8766 43.1831 76.8466 43.2786C76.8166 43.3713 76.7907 43.4504 76.7689 43.5159L76.057 45.402H78.0127Z" fill="#5E5E5E"/>
<path d="M82.7708 47.9182V41.9366H83.4663V47.2963H86.1216V47.9182H82.7708Z" fill="#5E5E5E"/>
</svg>
